<svg xmlns="http://www.w3.org/2000/svg" viewBox="0 0 1920 31.6" preserveAspectRatio="none">
<path class="elementor-shape-fill vc-shape-fill" d="M0,31.3V1.2c10.4,0,22.9,0,39.6,0c65.7,0,65.7,12.5,131.3,12.5c65.7,0,65.7-6.8,131.3-6.8c65.7,0,65.7,1.3,131.3,1.3
	s65.7,5.6,131.3,5.6S630.6,1.1,696.2,1.1S761.9,0,827.5,0s65.7,14.1,131.3,14.1s65.7-4.8,131.3-4.8c65.7,0,65.7-6.3,131.3-6.3
	s65.7,5.4,131.3,5.4S1418.4,1,1484,1s65.7,8.6,131.3,8.6S1681,4,1746.6,4s65.7,7,131.3,7c18,0,31-0.3,41.8-0.7v20.8
	C1909.2,31.9,0,31.3,0,31.3z"></path>
</svg>